<svg xmlns="http://www.w3.org/2000/svg" viewBox="0 0 1024 1024" width="1024" height="1024">
  <defs>
    <linearGradient id="bg" x1="0%" y1="0%" x2="100%" y2="100%">
      <stop offset="0%" style="stop-color:#2563eb"/>
      <stop offset="40%" style="stop-color:#1e50d8"/>
      <stop offset="100%" style="stop-color:#1d4ed8"/>
    </linearGradient>
    <linearGradient id="letterGrad" x1="0%" y1="0%" x2="0%" y2="100%">
      <stop offset="0%" style="stop-color:#ffffff"/>
      <stop offset="100%" style="stop-color:#f0f4ff"/>
    </linearGradient>
    <filter id="textShadow" x="-5%" y="-5%" width="110%" height="115%">
      <feDropShadow dx="0" dy="6" stdDeviation="12" flood-color="#0a2463" flood-opacity="0.35"/>
    </filter>
  </defs>
  <!-- Full bleed background for maskable icon (no rounded corners) -->
  <rect width="1024" height="1024" fill="url(#bg)"/>
  <!-- Subtle radial highlight -->
  <circle cx="420" cy="380" r="400" fill="white" opacity="0.04"/>
  <!-- S Logo - path-based for consistent cross-platform rendering -->
  <!-- Centered in maskable safe zone (inner 80% = 102-922 range) -->
  <g filter="textShadow" transform="translate(512, 530)">
    <path d="
      M-16,-304
      C104,-304 196,-264 236,-196
      C264,-148 272,-96 272,-48
      C272,36 236,104 164,144
      C124,168 72,184 8,192
      L-56,200
      C-128,212 -168,232 -192,264
      C-208,284 -216,308 -216,336
      C-216,372 -200,400 -172,420
      C-140,444 -96,456 -40,456
      C32,456 88,436 128,400
      C156,376 172,348 180,312
      L276,312
      C268,384 236,444 180,488
      C120,536 44,560 -44,560
      C-144,560 -224,528 -276,472
      C-316,428 -336,372 -336,312
      C-336,232 -300,168 -228,124
      C-184,96 -128,80 -56,68
      L24,56
      C88,48 132,28 160,0
      C180,-20 188,-48 188,-80
      C188,-120 172,-152 140,-176
      C108,-200 68,-212 16,-212
      C-48,-212 -100,-196 -136,-164
      C-164,-140 -180,-108 -188,-68
      L-284,-68
      C-276,-144 -244,-204 -188,-248
      C-124,-296 -44,-320 -16,-304
      Z
    " fill="url(#letterGrad)"/>
  </g>
  <!-- Lightning bolt accent - positioned within safe zone -->
  <g transform="translate(680, 250)" opacity="0.95">
    <path d="M0,0 L-22,44 L6,44 L-14,88 L36,32 L8,32 L28,0 Z"
          fill="#FCD34D" stroke="#F59E0B" stroke-width="2.5" stroke-linejoin="round"/>
  </g>
</svg>